<svg version="1.1" xmlns="http://www.w3.org/2000/svg">
<text id="10" x="36.120000" y="8.300000" stroke="blue" stroke-width="1" fill="blue" text-anchor="mv_O_v">v_O_v</text>
<line id="11" x1="3.140000" y1="36.400000" x2="18.500000" y2="55.600000" stroke="#c87137" stroke-width="1" />
<line id="12" x1="42.300000" y1="55.600000" x2="69.100000" y2="37.800000" stroke="#c87137" stroke-width="1" />
<line id="13" x1="25.300000" y1="99.800000" x2="18.800000" y2="145.500000" stroke="#c87137" stroke-width="1" />
<line id="14" x1="36.200000" y1="101.100000" x2="45.800000" y2="145.400000" stroke="#c87137" stroke-width="1" />
<rect id="15" x="27.700000" y="37.000000" width="5.200000" height="10.600000" stroke="#c87137" stroke-width="1" fill="#ffb380" />
<circle id="16" cx="30.300000" cy="23.300000" r="15.000000" stroke="#c87137" stroke-width="1" fill-opacity="0.7" fill="#ffb380" />
<rect id="17" x="19.800000" y="45.000000" width="21.200000" height="37.200000" stroke="black" stroke-width="1" fill="white" />
<rect id="18" x="19.800000" y="82.200000" width="21.200000" height="17.200000" stroke="black" stroke-width="1" fill="white" />
<line id="19" x1="30.400000" y1="91.000000" x2="30.400000" y2="99.000000" stroke="black" stroke-width="1" />
<rect id="20" x="19.800000" y="56.100000" width="21.200000" height="4.500000" stroke="red" stroke-width="1" fill="red" />
<rect id="21" x="19.800000" y="63.000000" width="21.200000" height="4.500000" stroke="black" stroke-width="1" fill="black" />
<line id="23" x1="3.140000" y1="186.400000" x2="18.500000" y2="205.600000" stroke="#c87137" stroke-width="1" />
<line id="24" x1="42.300000" y1="205.600000" x2="69.100000" y2="187.800000" stroke="#c87137" stroke-width="1" />
<line id="25" x1="25.300000" y1="249.800000" x2="18.800000" y2="295.500000" stroke="#c87137" stroke-width="1" />
<line id="26" x1="36.200000" y1="251.100000" x2="45.800000" y2="295.400000" stroke="#c87137" stroke-width="1" />
<rect id="27" x="27.700000" y="187.000000" width="5.200000" height="10.600000" stroke="#c87137" stroke-width="1" fill="#ffb380" />
<circle id="28" cx="30.300000" cy="173.300000" r="15.000000" stroke="#c87137" stroke-width="1" fill-opacity="0.7" fill="#ffb380" />
<rect id="29" x="19.800000" y="195.000000" width="21.200000" height="37.200000" stroke="black" stroke-width="1" fill="white" />
<rect id="30" x="19.800000" y="232.200000" width="21.200000" height="17.200000" stroke="black" stroke-width="1" fill="white" />
<line id="31" x1="30.400000" y1="241.000000" x2="30.400000" y2="249.000000" stroke="black" stroke-width="1" />
<rect id="32" x="19.800000" y="206.100000" width="21.200000" height="4.500000" stroke="red" stroke-width="1" fill="red" />
<rect id="33" x="19.800000" y="213.000000" width="21.200000" height="4.500000" stroke="black" stroke-width="1" fill="black" />
<line id="35" x1="3.140000" y1="336.400000" x2="18.500000" y2="355.600000" stroke="#c87137" stroke-width="1" />
<line id="36" x1="42.300000" y1="355.600000" x2="69.100000" y2="337.800000" stroke="#c87137" stroke-width="1" />
<line id="37" x1="25.300000" y1="399.800000" x2="18.800000" y2="445.500000" stroke="#c87137" stroke-width="1" />
<line id="38" x1="36.200000" y1="401.100000" x2="45.800000" y2="445.400000" stroke="#c87137" stroke-width="1" />
<rect id="39" x="27.700000" y="337.000000" width="5.200000" height="10.600000" stroke="#c87137" stroke-width="1" fill="#ffb380" />
<circle id="40" cx="30.300000" cy="323.300000" r="15.000000" stroke="#c87137" stroke-width="1" fill-opacity="0.7" fill="#ffb380" />
<rect id="41" x="19.800000" y="345.000000" width="21.200000" height="37.200000" stroke="black" stroke-width="1" fill="white" />
<rect id="42" x="19.800000" y="382.200000" width="21.200000" height="17.200000" stroke="black" stroke-width="1" fill="white" />
<line id="43" x1="30.400000" y1="391.000000" x2="30.400000" y2="399.000000" stroke="black" stroke-width="1" />
<rect id="44" x="19.800000" y="356.100000" width="21.200000" height="4.500000" stroke="red" stroke-width="1" fill="red" />
<rect id="45" x="19.800000" y="363.000000" width="21.200000" height="4.500000" stroke="black" stroke-width="1" fill="black" />
<text id="48" x="88.081524" y="38.300000" stroke="blue" stroke-width="1" fill="blue" text-anchor="m|-T-|">|-T-|</text>
</svg>
